<?xml version="1.0" encoding="utf-8"?>
<!-- Generator: Adobe Illustrator 18.1.1, SVG Export Plug-In . SVG Version: 6.00 Build 0)  -->
<svg version="1.1" id="Layer_1" xmlns="http://www.w3.org/2000/svg" xmlns:xlink="http://www.w3.org/1999/xlink" x="0px" y="0px"
	 width="220.1px" height="57.8px" viewBox="996.2 367.4 220.1 57.8" style="enable-background:new 996.2 367.4 220.1 57.8;"
	 xml:space="preserve">
<style type="text/css">
	.st0{fill:#FFFFFF;}
</style>
<g>
	<path class="st0" d="M1029.8,370.7c0,0,0.6,1,0.6,2s-1.5,4.6-2.3,7.3c0,0-0.7-0.6-3.6-0.6h-6.1l-4.2,26.4l-0.9,5.9
		c-2.9,0-8,0.3-9.4,0.3c-1.1,0-2.2-1-2.2-1l0.8-5.2l4.2-26.4h-9.9c0,0-0.6-1-0.6-2s1.5-4.6,2.3-7.3c0,0,0.7,0.6,3.6,0.6
		L1029.8,370.7z"/>
	<path class="st0" d="M1054.7,402.2c-1.1,5.4,0.9,7.7,0.9,7.7s-2.4,2.4-6.2,2.4c-4.4,0-6.4-3.2-5.1-10l0.2-0.9l1.9-9.6
		c0.2-0.8-0.2-1.3-1-1.3c-3.7,0-5.8,10.9-5.8,11l-0.7,4.5l-0.9,5.9c-3.1,0-7,0.3-8.2,0.3s-2.2-1-2.2-1l0.8-5.2l4.4-27.5
		c0.8-5,1-9,1-9c3.2-0.6,7.5-2.1,8.9-2.1c1.2,0,2.2,1,2.2,1l-3.2,19.9c2.4-3.5,5.6-6.3,9.6-6.3c4.5,0,6.9,3.8,5.3,11.2l-1.8,8.4
		L1054.7,402.2z"/>
	<path class="st0" d="M1076.2,398.8l-6.4,1.3c0.5,2.8,2.2,4.1,5.1,4.1c3.5,0,5.9-2.7,5.9-2.7s1.8,1,1.8,3.1c0,3.7-5.6,7.6-12.1,7.6
		c-6.6,0-10.9-4.2-10.9-11.2c0-8.2,5.8-19.2,16.1-19.2c5.6,0,9.2,3.3,9.2,8.5C1084.8,394.7,1082.4,397.6,1076.2,398.8z M1074,394.5
		c1.4-0.4,1.8-1.6,1.8-2.8c0-1.2-0.4-3-1.8-3c-2.5,0-3.7,4.1-4.1,7.2L1074,394.5z"/>
	<path class="st0" d="M1125.5,381.8c4.5,0,6.9,3.8,5.3,11.2l-1.8,8.4l-0.2,0.8c-1.1,5.4,0.9,7.7,0.9,7.7s-2.4,2.4-6.2,2.4
		c-4.4,0-6.4-3.2-5.1-10l0.2-0.9l1.9-9.6c0.2-0.8-0.2-1.3-1-1.3c-3.4,0-5.5,9.4-5.7,10.8l-0.7,4.6l-0.9,5.9c-3.1,0-7,0.3-8.2,0.3
		s-2.2-1-2.2-1l0.8-5.2l2.2-14.1c0.1-0.9,0-1.3-0.8-1.3c-3.8,0-5.9,11-5.9,11l-0.7,4.5l-0.9,5.9c-3.1,0-7,0.3-8.2,0.3s-2.2-1-2.2-1
		l0.8-5.2l2.1-13l0.1-0.8c0.9-5.4-0.7-7.7-0.7-7.7s2.4-2.5,6.2-2.5c3.6,0,5.4,2.2,5.4,6.7c2.4-3.7,5.7-6.7,9.9-6.7
		c3.6,0,5.6,2.3,5.7,6.9C1117.9,385,1121.2,381.8,1125.5,381.8L1125.5,381.8z"/>
	<path class="st0" d="M1150.4,398.8l-6.4,1.3c0.5,2.8,2.2,4.1,5.1,4.1c3.5,0,5.9-2.7,5.9-2.7s1.8,1,1.8,3.1c0,3.7-5.6,7.6-12.1,7.6
		c-6.6,0-10.9-4.2-10.9-11.2c0-8.2,5.8-19.2,16.1-19.2c5.6,0,9.2,3.3,9.2,8.5C1159,394.7,1156.5,397.6,1150.4,398.8z M1148.2,394.5
		c1.4-0.4,1.8-1.6,1.8-2.8c0-1.2-0.4-3-1.8-3c-2.5,0-3.7,4.1-4.1,7.2L1148.2,394.5z"/>
	<path class="st0" d="M1181,401.2c0,0,2.2,2,2.2,5.4c0,4.5-3.8,5.7-7,5.7c-4.2,0-7.2-2-10.3-3c-0.9,1-1.7,2-2.6,3
		c0,0-4.7-0.1-4.7-3.3c0-3.9,6.5-10.5,13.5-18.1c-0.8-0.1-1.6-0.2-2.3-0.2c-4,0-5.5,2-5.5,2s-2-2.3-1.9-5.4c0.2-4.2,4.3-5.4,7.4-5.4
		c3.4,0,5.8,1.3,8.2,2.4l2-2.4c0,0,4.7,0.1,4.7,3.3c0,3.7-6.3,10.3-13.1,17.6c1.4,0.4,2.8,0.7,4.1,0.7
		C1179.3,403.5,1181,401.2,1181,401.2L1181,401.2z"/>
	<path class="st0" d="M1212,409.7c-1.7,10.3-8.7,15.5-17.6,15.5c-5.7,0-9.9-3-9.9-6.4c0-2.3,1.9-3.3,1.9-3.3s1.9,1.8,5.7,1.8
		c3.6,0,8.4-1.5,9.3-6.9l0.7-4.2c-2.4,3.5-5.6,6.3-9.6,6.3c-4.5,0-6.5-3.7-5.3-11.2l1.3-8.1c0.8-5,1-9,1-9c3.2-0.6,7.5-2.1,8.9-2.1
		c1.2,0,2.2,1,2.2,1l-1.6,10.2l-1.5,9.4c-0.1,0.9,0,1.3,0.8,1.3c3.7,0,5.9-10.7,5.9-10.7c0.8-5,1-9,1-9c3.2-0.6,7.5-2.1,8.9-2.1
		c1.2,0,2.2,1,2.2,1l-1.6,10.2L1212,409.7z"/>
</g>
</svg>
